<svg width="394" height="393" viewBox="0 0 394 393" fill="none" xmlns="http://www.w3.org/2000/svg">
<path d="M197.003 148.99C207.317 148.991 215.678 157.353 215.678 167.667V205.578C215.677 215.891 207.316 224.252 197.003 224.253C186.689 224.253 178.326 215.892 178.326 205.578V167.665C178.326 157.351 186.689 148.99 197.003 148.99Z" fill="url(#paint0_linear_1120_25559)"/>
<path d="M144.622 153.081C154.936 153.082 163.297 161.444 163.297 171.758V201.485C163.297 211.798 154.936 220.159 144.622 220.16C134.308 220.16 125.946 211.799 125.945 201.485V171.758C125.945 161.444 134.308 153.081 144.622 153.081Z" fill="url(#paint1_linear_1120_25559)"/>
<path d="M249.413 153.081C259.727 153.082 268.088 161.444 268.088 171.758V201.485C268.088 211.798 259.727 220.159 249.413 220.16C239.099 220.16 230.737 211.799 230.736 201.485V171.758C230.736 161.444 239.099 153.081 249.413 153.081Z" fill="url(#paint2_linear_1120_25559)"/>
<path fill-rule="evenodd" clip-rule="evenodd" d="M234.276 91.0312C284.986 91.0312 326.095 132.14 326.095 182.85V190.392C326.095 238.447 289.177 277.882 242.155 281.878C237.124 282.306 232.264 284.207 228.681 287.764L173.117 342.934C163.461 352.521 147.031 345.68 147.031 332.073V286.341C147.031 283.475 144.909 281.069 142.096 280.522C99.8161 272.304 67.8984 235.075 67.8984 190.392V182.85C67.8984 132.14 109.007 91.0312 159.717 91.0312H234.276ZM159.768 130.752C132.3 130.752 110.033 153.019 110.033 180.487V192.755C110.033 220.223 132.3 242.49 159.768 242.49H234.216C261.684 242.49 283.951 220.223 283.951 192.755V180.487C283.951 153.019 261.684 130.752 234.216 130.752H159.768Z" fill="url(#paint3_linear_1120_25559)"/>
<path d="M230.084 45.5938C269.516 45.5938 305.729 62.9408 330.399 91.2412C332.468 93.6146 332.774 96.9201 331.432 99.5654C341.502 112.466 349.213 127.429 353.833 143.896C362.812 145.253 369.695 153.004 369.695 162.362V210.882C369.695 221.196 361.334 229.558 351.02 229.558C340.705 229.558 332.344 221.196 332.344 210.882V162.362C332.344 153.21 338.927 145.596 347.617 143.996C343.188 128.95 336.041 115.253 326.8 103.383C324.093 104.152 321.064 103.359 319.093 101.098C297.193 75.9756 265.064 60.5938 230.084 60.5938H163.928C128.948 60.5938 96.8186 75.9757 74.9189 101.098C72.9463 103.361 69.9151 104.153 67.207 103.382C57.9653 115.253 50.8172 128.952 46.3877 143.999C55.0711 145.604 61.6484 153.214 61.6484 162.362V210.882C61.6484 221.196 53.287 229.558 42.9727 229.558C32.6583 229.558 24.297 221.196 24.2969 210.882V162.362C24.297 153 31.186 145.246 40.1719 143.895C44.7919 127.426 52.5051 112.462 62.5762 99.5615C61.2366 96.9169 61.5445 93.6133 63.6123 91.2412C88.2827 62.9408 124.496 45.5938 163.928 45.5938H230.084Z" fill="url(#paint4_linear_1120_25559)"/>
<defs>
<linearGradient id="paint0_linear_1120_25559" x1="786.699" y1="283.609" x2="786.699" y2="41.8457" gradientUnits="userSpaceOnUse">
<stop stop-color="#FFB005"/>
<stop offset="1" stop-color="#FF8800"/>
</linearGradient>
<linearGradient id="paint1_linear_1120_25559" x1="786.699" y1="283.609" x2="786.699" y2="41.8457" gradientUnits="userSpaceOnUse">
<stop stop-color="#FFB005"/>
<stop offset="1" stop-color="#FF8800"/>
</linearGradient>
<linearGradient id="paint2_linear_1120_25559" x1="786.699" y1="283.609" x2="786.699" y2="41.8457" gradientUnits="userSpaceOnUse">
<stop stop-color="#FFB005"/>
<stop offset="1" stop-color="#FF8800"/>
</linearGradient>
<linearGradient id="paint3_linear_1120_25559" x1="208.798" y1="91.0313" x2="208.798" y2="414.273" gradientUnits="userSpaceOnUse">
<stop stop-color="#3F116B"/>
<stop offset="1" stop-color="#7B29CC"/>
</linearGradient>
<linearGradient id="paint4_linear_1120_25559" x1="196.996" y1="229.558" x2="196.996" y2="45.5937" gradientUnits="userSpaceOnUse">
<stop stop-color="#FFB005"/>
<stop offset="1" stop-color="#FF8800"/>
</linearGradient>
</defs>
</svg>
