<svg width="889" height="227" viewBox="0 0 889 227" fill="none" xmlns="http://www.w3.org/2000/svg">
<path fill-rule="evenodd" clip-rule="evenodd" d="M656.528 77.8577C680.387 77.8577 699.729 97.199 699.729 121.058C699.729 144.917 680.387 164.258 656.528 164.258C632.67 164.258 613.328 144.917 613.328 121.058C613.328 97.199 632.67 77.8577 656.528 77.8577ZM656.528 100.136C644.973 100.136 635.606 109.503 635.606 121.058C635.606 132.613 644.973 141.98 656.528 141.98C668.083 141.98 677.45 132.613 677.45 121.058C677.45 109.503 668.083 100.136 656.528 100.136Z" fill="url(#paint0_linear_1099_22387)"/>
<path d="M570.695 77.8577C579.398 77.8577 587.744 81.3145 593.897 87.468C599.886 93.4563 603.319 101.521 603.499 109.97H603.508V152.676C603.508 158.669 598.649 163.528 592.656 163.528C586.663 163.528 581.805 158.669 581.805 152.676V110.434C581.744 107.571 580.583 104.84 578.555 102.811C576.47 100.726 573.643 99.5549 570.695 99.5549C567.747 99.5549 564.92 100.726 562.836 102.811C560.751 104.895 559.58 107.722 559.58 110.67H559.57V152.676C559.57 158.669 554.712 163.528 548.719 163.528C542.726 163.528 537.867 158.669 537.867 152.676V110.434C537.806 107.571 536.646 104.84 534.617 102.811C532.533 100.726 529.706 99.5549 526.758 99.5549C523.81 99.5549 520.983 100.726 518.898 102.811C516.87 104.84 515.709 107.571 515.648 110.434V152.676C515.648 158.669 510.79 163.528 504.797 163.528C498.804 163.528 493.945 158.669 493.945 152.676V109.97H493.954C494.134 101.521 497.567 93.4563 503.556 87.468C509.709 81.3145 518.055 77.8577 526.758 77.8577C534.892 77.8577 542.715 80.8785 548.727 86.2981C554.739 80.8784 562.561 77.8577 570.695 77.8577Z" fill="url(#paint1_linear_1099_22387)"/>
<path d="M729.586 82.4875C736.26 79.1008 743.771 77.5208 751.312 77.9172C753.735 78.0446 756.132 78.3745 758.477 78.8987C766.553 80.7044 768.402 90.3583 763.616 97.1106C761.354 100.303 756.957 100.978 753.131 100.156C752.125 99.9407 751.099 99.8038 750.062 99.7493C746.661 99.5705 743.273 100.283 740.264 101.811C737.254 103.338 734.735 105.623 732.979 108.419C731.222 111.215 730.294 114.417 730.293 117.681L730.203 117.68V151.799C730.203 158.075 725.116 163.162 718.84 163.162C712.564 163.162 707.477 158.075 707.477 151.799V116.701H707.49C707.668 109.803 709.711 103.061 713.432 97.1399C717.327 90.9401 722.912 85.8743 729.586 82.4875Z" fill="url(#paint2_linear_1099_22387)"/>
<path d="M794.318 80.6965C801.585 77.538 809.583 76.4479 817.43 77.5461C825.276 78.6445 832.668 81.8898 838.788 86.9221C844.908 91.9545 851.304 101.353 852.648 108.142C854.585 117.922 852.564 130.6 837.548 130.628C822.531 130.657 810.266 130.637 810.266 130.637C804.474 130.637 799.778 125.942 799.778 120.15C799.778 114.358 804.474 109.662 810.266 109.661H829.463C828.224 107.535 826.614 105.634 824.697 104.058C821.734 101.621 818.154 100.051 814.354 99.5188C810.555 98.987 806.682 99.5148 803.163 101.044C799.644 102.574 796.615 105.046 794.412 108.187C792.209 111.328 790.916 115.017 790.676 118.846C790.436 122.675 791.259 126.497 793.053 129.889C794.847 133.281 797.543 136.111 800.844 138.068C804.06 139.975 807.73 140.977 811.466 140.977V140.924H840.831C846.889 140.924 851.8 145.836 851.801 151.894C851.801 157.952 846.889 162.864 840.831 162.865H812.062L812.066 163.162C804.144 163.273 796.345 161.192 789.529 157.152C782.714 153.111 777.146 147.266 773.441 140.262C769.737 133.258 768.038 125.367 768.533 117.459C769.029 109.551 771.699 101.933 776.249 95.4465C780.799 88.9598 787.052 83.8551 794.318 80.6965Z" fill="url(#paint3_linear_1099_22387)"/>
<path d="M440.518 77.2236C450.863 75.7385 461.399 77.9925 470.231 83.5791C474.987 86.587 479.081 90.4552 482.33 94.9434C486.97 101.353 482.579 109.601 475.02 111.941C471.24 113.111 467.307 110.888 465.009 107.668C463.336 105.324 461.215 103.306 458.743 101.743C454.233 98.8906 448.853 97.7398 443.571 98.498C438.289 99.2564 433.451 101.874 429.926 105.88C426.4 109.886 424.42 115.018 424.339 120.354C424.258 125.689 426.083 130.879 429.485 134.989C432.888 139.1 437.645 141.863 442.902 142.78C448.159 143.698 453.571 142.711 458.165 139.996C460.683 138.508 462.865 136.555 464.607 134.263C467.002 131.113 471 129.01 474.742 130.294C482.227 132.862 486.367 141.239 481.535 147.506C478.152 151.894 473.943 155.636 469.099 158.499C460.101 163.816 449.502 165.749 439.206 163.952C428.91 162.155 419.594 156.744 412.93 148.693C406.265 140.642 402.691 130.479 402.849 120.028C403.007 109.578 406.887 99.5274 413.791 91.6816C420.696 83.8358 430.172 78.7088 440.518 77.2236Z" fill="url(#paint4_linear_1099_22387)"/>
<path d="M303.338 81.4229C310.604 78.2644 318.602 77.1742 326.449 78.2725C334.296 79.3708 341.687 82.6161 347.808 87.6484C353.928 92.6808 360.323 102.079 361.668 108.868C363.604 118.648 361.584 131.326 346.567 131.354C331.551 131.383 319.286 131.363 319.286 131.363C313.494 131.363 308.798 126.668 308.798 120.876C308.798 115.084 313.493 110.388 319.285 110.388H338.482C337.243 108.262 335.634 106.361 333.717 104.784C330.753 102.347 327.174 100.777 323.374 100.245C319.574 99.7133 315.701 100.241 312.183 101.771C308.664 103.3 305.635 105.772 303.432 108.913C301.228 112.054 299.935 115.743 299.695 119.572C299.455 123.402 300.278 127.224 302.072 130.615C303.866 134.007 306.563 136.837 309.863 138.794C313.08 140.701 316.749 141.703 320.485 141.703V141.65H349.851C355.909 141.651 360.82 146.562 360.82 152.62C360.82 158.679 355.909 163.591 349.851 163.591H321.082L321.086 163.889C313.163 163.999 305.364 161.919 298.549 157.878C291.733 153.837 286.166 147.992 282.461 140.988C278.756 133.984 277.057 126.093 277.553 118.186C278.048 110.278 280.719 102.66 285.269 96.1729C289.818 89.6861 296.071 84.5814 303.338 81.4229Z" fill="url(#paint5_linear_1099_22387)"/>
<path d="M57.9375 38.0625C63.9954 38.0625 68.9062 42.9734 68.9062 49.0312V59.8809H82.5469C88.2078 59.8809 92.7969 64.4699 92.7969 70.1309C92.7969 75.7918 88.2078 80.3809 82.5469 80.3809H68.9062V127.551H68.8604C68.9762 129.757 69.5656 131.917 70.5947 133.887C71.7573 136.112 73.4458 138.03 75.5186 139.479C77.5913 140.927 79.9876 141.863 82.5049 142.209C86.6668 142.781 91.1267 144.65 92.5469 148.604L92.8379 149.412C95.2818 156.216 91.6156 163.95 84.3867 163.892C82.7509 163.878 81.1129 163.76 79.4834 163.536C73.4944 162.714 67.7938 160.486 62.8623 157.04C57.9308 153.594 53.9125 149.031 51.1465 143.736C48.5256 138.719 47.1027 133.183 46.9785 127.551H46.9688V80.3809H45.9844C40.3235 80.3809 35.7344 75.7918 35.7344 70.1309C35.7344 64.4699 40.3235 59.8809 45.9844 59.8809H46.9688V49.0312C46.9688 42.9734 51.8796 38.0625 57.9375 38.0625Z" fill="url(#paint6_linear_1099_22387)"/>
<path d="M382.743 77.4922C388.802 77.4922 393.714 82.4035 393.714 88.4619V152.558C393.714 158.616 388.802 163.527 382.743 163.527C376.685 163.527 371.774 158.616 371.773 152.558V88.4619C371.774 82.4036 376.685 77.4923 382.743 77.4922Z" fill="url(#paint7_linear_1099_22387)"/>
<path d="M382.743 46.9102C388.802 46.9102 393.714 51.8214 393.714 57.8799C393.714 63.9384 388.802 68.8506 382.743 68.8506C376.685 68.8504 371.773 63.9384 371.773 57.8799C371.774 51.8215 376.685 46.9103 382.743 46.9102Z" fill="url(#paint8_linear_1099_22387)"/>
<path d="M176.997 93.6602C182.382 93.6604 186.747 98.0263 186.747 103.411V123.204C186.747 128.589 182.382 132.954 176.997 132.954C171.612 132.954 167.246 128.589 167.246 123.204V103.41C167.246 98.0254 171.612 93.6602 176.997 93.6602Z" fill="url(#paint9_linear_1099_22387)"/>
<path d="M149.649 95.7961C155.034 95.7963 159.4 100.162 159.4 105.547V121.067C159.399 126.452 155.034 130.817 149.649 130.817C144.265 130.817 139.899 126.452 139.898 121.067V105.547C139.898 100.162 144.264 95.7961 149.649 95.7961Z" fill="url(#paint10_linear_1099_22387)"/>
<path d="M204.36 95.7961C209.745 95.7963 214.11 100.162 214.11 105.547V121.067C214.11 126.452 209.745 130.817 204.36 130.817C198.975 130.817 194.609 126.452 194.609 121.067V105.547C194.609 100.162 198.975 95.7961 204.36 95.7961Z" fill="url(#paint11_linear_1099_22387)"/>
<path fill-rule="evenodd" clip-rule="evenodd" d="M196.45 63.3994C222.926 63.3994 244.388 84.862 244.388 111.337V115.275C244.388 140.364 225.113 160.952 200.564 163.039C197.937 163.262 195.4 164.255 193.529 166.112L164.52 194.916C159.478 199.921 150.901 196.35 150.901 189.245V165.369C150.901 163.873 149.793 162.616 148.324 162.331C126.25 158.04 109.586 138.603 109.586 115.275V111.337C109.586 84.862 131.049 63.3994 157.524 63.3994H196.45ZM157.55 84.1372C143.21 84.1374 131.584 95.7629 131.584 110.104V116.508C131.584 130.849 143.21 142.475 157.55 142.475H196.419C210.76 142.475 222.385 130.849 222.385 116.508V110.104C222.385 95.7628 210.76 84.1372 196.419 84.1372H157.55Z" fill="url(#paint12_linear_1099_22387)"/>
<path d="M194.26 39.6758C214.847 39.6758 233.754 48.7325 246.634 63.508C247.714 64.7471 247.874 66.4729 247.173 67.854C252.43 74.589 256.457 82.4013 258.869 90.9989C263.557 91.7072 267.15 95.754 267.15 100.64V125.971C267.15 131.356 262.785 135.722 257.4 135.722C252.015 135.722 247.649 131.356 247.649 125.971V100.64C247.649 95.8613 251.086 91.8859 255.623 91.0509C253.311 83.1955 249.579 76.0442 244.755 69.847C243.342 70.2483 241.76 69.8348 240.731 68.6539C229.297 55.5379 212.523 47.5072 194.26 47.5072H159.72C141.458 47.5072 124.683 55.5379 113.25 68.6539C112.22 69.8354 110.637 70.2489 109.223 69.8465C104.398 76.0443 100.666 83.1963 98.3538 91.0524C102.887 91.8902 106.321 95.8637 106.321 100.64V125.971C106.321 131.356 101.956 135.722 96.5708 135.722C91.1857 135.722 86.8204 131.356 86.8203 125.971V100.64C86.8204 95.7516 90.4171 91.7033 95.1085 90.9978C97.5206 82.3999 101.548 74.5872 106.806 67.8519C106.106 66.4712 106.267 64.7464 107.347 63.508C120.227 48.7326 139.133 39.6758 159.72 39.6758H194.26Z" fill="url(#paint13_linear_1099_22387)"/>
<defs>
<linearGradient id="paint0_linear_1099_22387" x1="507.842" y1="164.258" x2="507.842" y2="37.8721" gradientUnits="userSpaceOnUse">
<stop stop-color="#FFB005"/>
<stop offset="1" stop-color="#FF8800"/>
</linearGradient>
<linearGradient id="paint1_linear_1099_22387" x1="507.842" y1="164.258" x2="507.842" y2="37.8721" gradientUnits="userSpaceOnUse">
<stop stop-color="#FFB005"/>
<stop offset="1" stop-color="#FF8800"/>
</linearGradient>
<linearGradient id="paint2_linear_1099_22387" x1="507.842" y1="164.258" x2="507.842" y2="37.8721" gradientUnits="userSpaceOnUse">
<stop stop-color="#FFB005"/>
<stop offset="1" stop-color="#FF8800"/>
</linearGradient>
<linearGradient id="paint3_linear_1099_22387" x1="507.842" y1="164.258" x2="507.842" y2="37.8721" gradientUnits="userSpaceOnUse">
<stop stop-color="#FFB005"/>
<stop offset="1" stop-color="#FF8800"/>
</linearGradient>
<linearGradient id="paint4_linear_1099_22387" x1="280.483" y1="38.0625" x2="280.483" y2="197.61" gradientUnits="userSpaceOnUse">
<stop stop-color="#0E4500"/>
<stop offset="1" stop-color="#23AB00"/>
</linearGradient>
<linearGradient id="paint5_linear_1099_22387" x1="280.483" y1="38.0625" x2="280.483" y2="197.61" gradientUnits="userSpaceOnUse">
<stop stop-color="#0E4500"/>
<stop offset="1" stop-color="#23AB00"/>
</linearGradient>
<linearGradient id="paint6_linear_1099_22387" x1="280.483" y1="38.0625" x2="280.483" y2="197.61" gradientUnits="userSpaceOnUse">
<stop stop-color="#0E4500"/>
<stop offset="1" stop-color="#23AB00"/>
</linearGradient>
<linearGradient id="paint7_linear_1099_22387" x1="280.483" y1="38.0625" x2="280.483" y2="197.61" gradientUnits="userSpaceOnUse">
<stop stop-color="#0E4500"/>
<stop offset="1" stop-color="#23AB00"/>
</linearGradient>
<linearGradient id="paint8_linear_1099_22387" x1="280.483" y1="38.0625" x2="280.483" y2="197.61" gradientUnits="userSpaceOnUse">
<stop stop-color="#0E4500"/>
<stop offset="1" stop-color="#23AB00"/>
</linearGradient>
<linearGradient id="paint9_linear_1099_22387" x1="484.873" y1="163.943" x2="484.873" y2="37.7209" gradientUnits="userSpaceOnUse">
<stop stop-color="#FFB005"/>
<stop offset="1" stop-color="#FF8800"/>
</linearGradient>
<linearGradient id="paint10_linear_1099_22387" x1="484.873" y1="163.943" x2="484.873" y2="37.7209" gradientUnits="userSpaceOnUse">
<stop stop-color="#FFB005"/>
<stop offset="1" stop-color="#FF8800"/>
</linearGradient>
<linearGradient id="paint11_linear_1099_22387" x1="484.873" y1="163.943" x2="484.873" y2="37.7209" gradientUnits="userSpaceOnUse">
<stop stop-color="#FFB005"/>
<stop offset="1" stop-color="#FF8800"/>
</linearGradient>
<linearGradient id="paint12_linear_1099_22387" x1="257.799" y1="37.9099" x2="257.799" y2="197.252" gradientUnits="userSpaceOnUse">
<stop stop-color="#0E4500"/>
<stop offset="1" stop-color="#23AB00"/>
</linearGradient>
<linearGradient id="paint13_linear_1099_22387" x1="176.985" y1="135.722" x2="176.985" y2="39.6758" gradientUnits="userSpaceOnUse">
<stop stop-color="#FFB005"/>
<stop offset="1" stop-color="#FF8800"/>
</linearGradient>
</defs>
</svg>
