<svg width="438" height="437" viewBox="0 0 438 437" fill="none" xmlns="http://www.w3.org/2000/svg">
<rect width="438" height="437" fill="white"/>
<path d="M219.007 170.99C229.321 170.991 237.682 179.353 237.682 189.667V227.578C237.681 237.891 229.32 246.252 219.007 246.253C208.692 246.253 200.33 237.892 200.33 227.578V189.665C200.33 179.351 208.692 170.99 219.007 170.99Z" fill="url(#paint0_linear_1120_25589)"/>
<path d="M166.626 175.081C176.94 175.082 185.301 183.444 185.301 193.758V223.485C185.301 233.798 176.94 242.159 166.626 242.16C156.312 242.16 147.95 233.799 147.949 223.485V193.758C147.949 183.444 156.312 175.081 166.626 175.081Z" fill="url(#paint1_linear_1120_25589)"/>
<path d="M271.417 175.081C281.731 175.082 290.092 183.444 290.092 193.758V223.485C290.092 233.798 281.731 242.159 271.417 242.16C261.103 242.16 252.741 233.799 252.74 223.485V193.758C252.74 183.444 261.103 175.081 271.417 175.081Z" fill="url(#paint2_linear_1120_25589)"/>
<path fill-rule="evenodd" clip-rule="evenodd" d="M256.28 113.031C306.99 113.031 348.099 154.14 348.099 204.85V212.392C348.099 260.447 311.18 299.882 264.159 303.878C259.128 304.306 254.268 306.207 250.685 309.764L195.121 364.934C185.465 374.521 169.035 367.68 169.035 354.073V308.341C169.035 305.475 166.913 303.069 164.1 302.522C121.82 294.304 89.9023 257.075 89.9023 212.392V204.85C89.9023 154.14 131.011 113.031 181.721 113.031H256.28ZM181.772 152.752C154.304 152.752 132.037 175.019 132.037 202.487V214.755C132.037 242.223 154.304 264.49 181.772 264.49H256.22C283.688 264.49 305.955 242.223 305.955 214.755V202.487C305.955 175.019 283.688 152.752 256.22 152.752H181.772Z" fill="url(#paint3_linear_1120_25589)"/>
<path d="M252.088 67.5918C291.52 67.5918 327.733 84.9388 352.403 113.239C354.472 115.613 354.778 118.918 353.436 121.563C363.506 134.464 371.217 149.427 375.837 165.895C384.816 167.251 391.699 175.002 391.699 184.36V232.88C391.699 243.194 383.338 251.556 373.023 251.556C362.709 251.556 354.348 243.194 354.348 232.88V184.36C354.348 175.208 360.931 167.594 369.621 165.994C365.192 150.948 358.045 137.251 348.804 125.381C346.097 126.15 343.068 125.357 341.097 123.096C319.197 97.9737 287.067 82.5918 252.088 82.5918H185.932C150.952 82.5918 118.822 97.9737 96.9229 123.096C94.9502 125.359 91.919 126.151 89.2109 125.38C79.9692 137.251 72.8211 150.95 68.3916 165.997C77.075 167.602 83.6523 175.213 83.6523 184.36V232.88C83.6523 243.194 75.2909 251.556 64.9766 251.556C54.6622 251.556 46.3009 243.194 46.3008 232.88V184.36C46.3009 174.998 53.1899 167.244 62.1758 165.893C66.7958 149.424 74.509 134.46 84.5801 121.56C83.2405 118.915 83.5484 115.611 85.6162 113.239C110.287 84.9389 146.5 67.5918 185.932 67.5918H252.088Z" fill="url(#paint4_linear_1120_25589)"/>
<defs>
<linearGradient id="paint0_linear_1120_25589" x1="808.703" y1="305.609" x2="808.703" y2="63.8457" gradientUnits="userSpaceOnUse">
<stop stop-color="#FFB005"/>
<stop offset="1" stop-color="#FF8800"/>
</linearGradient>
<linearGradient id="paint1_linear_1120_25589" x1="808.703" y1="305.609" x2="808.703" y2="63.8457" gradientUnits="userSpaceOnUse">
<stop stop-color="#FFB005"/>
<stop offset="1" stop-color="#FF8800"/>
</linearGradient>
<linearGradient id="paint2_linear_1120_25589" x1="808.703" y1="305.609" x2="808.703" y2="63.8457" gradientUnits="userSpaceOnUse">
<stop stop-color="#FFB005"/>
<stop offset="1" stop-color="#FF8800"/>
</linearGradient>
<linearGradient id="paint3_linear_1120_25589" x1="230.802" y1="113.031" x2="230.802" y2="436.273" gradientUnits="userSpaceOnUse">
<stop stop-color="#3F116B"/>
<stop offset="1" stop-color="#7B29CC"/>
</linearGradient>
<linearGradient id="paint4_linear_1120_25589" x1="219" y1="251.556" x2="219" y2="67.5918" gradientUnits="userSpaceOnUse">
<stop stop-color="#FFB005"/>
<stop offset="1" stop-color="#FF8800"/>
</linearGradient>
</defs>
</svg>
