<svg width="394" height="393" viewBox="0 0 394 393" fill="none" xmlns="http://www.w3.org/2000/svg">
<path d="M197.003 148.99C207.317 148.991 215.678 157.353 215.678 167.667V205.578C215.677 215.891 207.316 224.252 197.003 224.253C186.689 224.253 178.326 215.892 178.326 205.578V167.665C178.326 157.351 186.689 148.99 197.003 148.99Z" fill="url(#paint0_linear_1099_22403)"/>
<path d="M144.622 153.081C154.936 153.082 163.297 161.444 163.297 171.758V201.485C163.297 211.798 154.936 220.159 144.622 220.16C134.308 220.16 125.946 211.799 125.945 201.485V171.758C125.945 161.444 134.308 153.081 144.622 153.081Z" fill="url(#paint1_linear_1099_22403)"/>
<path d="M249.413 153.081C259.727 153.082 268.088 161.444 268.088 171.758V201.485C268.088 211.798 259.727 220.159 249.413 220.16C239.099 220.16 230.737 211.799 230.736 201.485V171.758C230.736 161.444 239.099 153.081 249.413 153.081Z" fill="url(#paint2_linear_1099_22403)"/>
<path fill-rule="evenodd" clip-rule="evenodd" d="M234.276 91.0312C284.986 91.0312 326.095 132.14 326.095 182.85V190.392C326.095 238.447 289.177 277.882 242.155 281.878C237.124 282.306 232.264 284.207 228.681 287.764L173.117 342.934C163.461 352.521 147.031 345.68 147.031 332.073V286.341C147.031 283.475 144.909 281.069 142.096 280.522C99.8161 272.304 67.8984 235.075 67.8984 190.392V182.85C67.8984 132.14 109.007 91.0312 159.717 91.0312H234.276ZM159.768 130.752C132.3 130.752 110.033 153.019 110.033 180.487V192.755C110.033 220.223 132.3 242.49 159.768 242.49H234.216C261.684 242.49 283.951 220.223 283.951 192.755V180.487C283.951 153.019 261.684 130.752 234.216 130.752H159.768Z" fill="url(#paint3_linear_1099_22403)"/>
<path d="M230.084 45.5928C269.516 45.5928 305.729 62.9398 330.399 91.2402C332.468 93.6136 332.774 96.9191 331.432 99.5645C341.502 112.465 349.213 127.428 353.833 143.896C362.812 145.252 369.695 153.003 369.695 162.361V210.881C369.695 221.195 361.334 229.557 351.02 229.557C340.705 229.557 332.344 221.195 332.344 210.881V162.361C332.344 153.209 338.927 145.595 347.617 143.995C343.188 128.949 336.041 115.252 326.8 103.382C324.093 104.151 321.064 103.358 319.093 101.097C297.193 75.9746 265.064 60.5928 230.084 60.5928H163.928C128.948 60.5928 96.8186 75.9747 74.9189 101.097C72.9463 103.36 69.9151 104.152 67.207 103.381C57.9653 115.252 50.8172 128.951 46.3877 143.998C55.0711 145.603 61.6484 153.213 61.6484 162.361V210.881C61.6484 221.195 53.287 229.557 42.9727 229.557C32.6583 229.557 24.297 221.195 24.2969 210.881V162.361C24.297 152.999 31.186 145.245 40.1719 143.894C44.7919 127.425 52.5051 112.461 62.5762 99.5605C61.2366 96.9159 61.5445 93.6123 63.6123 91.2402C88.2827 62.9399 124.496 45.5928 163.928 45.5928H230.084Z" fill="url(#paint4_linear_1099_22403)"/>
<defs>
<linearGradient id="paint0_linear_1099_22403" x1="786.699" y1="283.609" x2="786.699" y2="41.8457" gradientUnits="userSpaceOnUse">
<stop stop-color="#FFB005"/>
<stop offset="1" stop-color="#FF8800"/>
</linearGradient>
<linearGradient id="paint1_linear_1099_22403" x1="786.699" y1="283.609" x2="786.699" y2="41.8457" gradientUnits="userSpaceOnUse">
<stop stop-color="#FFB005"/>
<stop offset="1" stop-color="#FF8800"/>
</linearGradient>
<linearGradient id="paint2_linear_1099_22403" x1="786.699" y1="283.609" x2="786.699" y2="41.8457" gradientUnits="userSpaceOnUse">
<stop stop-color="#FFB005"/>
<stop offset="1" stop-color="#FF8800"/>
</linearGradient>
<linearGradient id="paint3_linear_1099_22403" x1="351.782" y1="42.2094" x2="351.782" y2="347.408" gradientUnits="userSpaceOnUse">
<stop stop-color="#0E4500"/>
<stop offset="1" stop-color="#23AB00"/>
</linearGradient>
<linearGradient id="paint4_linear_1099_22403" x1="196.996" y1="229.557" x2="196.996" y2="45.5928" gradientUnits="userSpaceOnUse">
<stop stop-color="#FFB005"/>
<stop offset="1" stop-color="#FF8800"/>
</linearGradient>
</defs>
</svg>
